<?xml version="1.0" encoding="UTF-8" standalone="no"?>
<svg width="300" height="78" viewBox="0 0 1000 257" version="1.0" xmlns="http://www.w3.org/2000/svg">
  <g id="#ae285dff">
    <path d="M 142.27,10.47 C 156.13,34.28 170.11,58.02 183.82,81.92 C 161.66,121.01 139.82,160.29 116.91,198.95 C 108.12,213.79 99.57,228.77 90.88,243.66 C 62.7,243.83 34.52,243.82 6.34,243.78 C 7.2,241.85 8.05,239.91 9.09,238.07 C 53.46,162.19 98,86.41 142.27,10.47 z" style="opacity:1;fill:#ae285d" />
    <path d="M 755.46,69 C 771.04,98.04 786.61,127.07 802.17,156.12 C 796.68,156.23 791.19,155.95 785.71,156.14 C 782.03,149.74 778.84,143.07 775.24,136.63 C 761.4,136.22 747.55,136.5 733.7,136.47 C 730.36,143.1 726.72,149.56 723.18,156.07 C 717.77,156.02 712.36,156.18 706.96,156.13 C 722.9,126.96 738.89,97.81 755.46,69 M 740.63,124.05 C 750.07,124.18 759.52,124.16 768.97,124.24 C 764.24,115.44 759.98,106.39 754.91,97.78 C 750.05,106.49 745.29,115.24 740.63,124.05 z" style="opacity:1;fill:#ae285d" />
    <path d="M 142.28,155.63 C 170.56,155.62 198.84,155.42 227.12,155.89 C 243.96,185.25 261.34,214.29 278.03,243.73 C 249.75,243.87 221.48,243.76 193.2,243.74 C 176.37,214.28 158.79,185.27 142.28,155.63 z" style="opacity:1;fill:#ae285d" />
  </g>
</svg>
