<?xml version="1.0" encoding="UTF-8" standalone="no"?>
<svg xmlns="http://www.w3.org/2000/svg" width="960" height="240" viewBox="0 0 960 240">
  <path d="M123.4 135.2c-5.8 0-10.5-4.7-10.5-10.5s4.7-10.5 10.5-10.5 10.5 4.7 10.5 10.5-4.7 10.5-10.5 10.5zm22.4 0c-5.8 0-10.5-4.7-10.5-10.5s4.7-10.5 10.5-10.5 10.5 4.7 10.5 10.5-4.7 10.5-10.5 10.5z" fill="#f47d31"/>
  <path d="M136.2 82.2c-15.6 0-28.2 12.6-28.2 28.2s12.6 28.2 28.2 28.2 28.2-12.6 28.2-28.2-12.6-28.2-28.2-28.2zm0 46.4c-10 0-18.2-8.2-18.2-18.2s8.2-18.2 18.2-18.2 18.2 8.2 18.2 18.2-8.2 18.2-18.2 18.2z" fill="#9e1f26"/>
</svg>
