<svg xmlns="http://www.w3.org/2000/svg" viewBox="0 0 300 90.192" width="300" height="90">
  <g fill-rule="evenodd">
    <path d="M0 45.096C0 20.192 23.474 0 52.434 0s52.432 20.192 52.432 45.096-23.474 45.096-52.432 45.096S0 70.003 0 45.096" fill="#003874"/>
    <g fill="#ed1c24">
      <path d="M46.067 14.483l12.182-4.025.06 65.853-12.285 4.116.044-65.944"/>
    </g>
    <path d="M91.866 49.636c-1.143 9.42-6.427 18.937-17.965 18.955-6.736.012-11.998-4.6-15.642-10.243v-6.536c4.56 2.264 8.822 4.694 13.993 4.768 6.37.094 12.13-2.355 14.512-6.945h5.103z" fill="#fff"/>
  </g>
</svg>
