<svg height="201.556444" viewBox="0 0 151.415 61.565" width="496.138938" xmlns="http://www.w3.org/2000/svg">
  <path d="m68.046.868h75.24c4.018 0 7.336 3.476 7.336 7.718v44.47c0 4.241-3.318 7.718-7.335 7.718h-75.24c-4.027 0-7.317-3.477-7.317-7.717v-44.471c0-4.242 3.29-7.718 7.316-7.718" fill="#fab90c" fill-rule="evenodd"/>
  <path d="m68.046 1.663c-3.597 0-6.522 3.105-6.522 6.923v44.471c0 3.816 2.925 6.923 6.522 6.923h75.24c3.609 0 6.544-3.107 6.544-6.923v-44.47c0-3.82-2.935-6.924-6.543-6.924" fill="#9e173b"/>
  <path d="m53.114.795h-44.707c-4.178 0-7.613 3.47-7.613 7.71v44.511c0 4.238 3.435 7.709 7.613 7.709h44.707c4.203 0 7.615-3.471 7.615-7.709v-44.51c0-4.24-3.412-7.71-7.615-7.71" fill="#9e173b" fill-rule="evenodd"/>
</svg>
